<mxfile host="app.diagrams.net" modified="2022-03-04T07:57:17.273Z" agent="5.0 (Macintosh; Intel Mac OS X 10_15_7) AppleWebKit/537.36 (KHTML, like Gecko) Chrome/98.0.4758.102 Safari/537.36" etag="skDsgAFY--adG8EzTDeZ" version="16.6.5" type="github">
  <diagram id="o__K3W2H5ZiVcGC9l-t1" name="Page-1">
    <mxGraphModel dx="946" dy="557" grid="1" gridSize="10" guides="1" tooltips="1" connect="1" arrows="1" fold="1" page="1" pageScale="1" pageWidth="827" pageHeight="1169" math="0" shadow="0">
      <root>
        <mxCell id="0" />
        <mxCell id="1" parent="0" />
        <mxCell id="Gda5yAScNebLMUTnura5-2" value="" style="rounded=0;whiteSpace=wrap;html=1;fillColor=#dae8fc;strokeColor=#6c8ebf;dashed=1;" vertex="1" parent="1">
          <mxGeometry x="30" y="370" width="340" height="220" as="geometry" />
        </mxCell>
        <mxCell id="Gda5yAScNebLMUTnura5-7" value="Env Factory" style="text;html=1;strokeColor=none;fillColor=none;align=center;verticalAlign=middle;whiteSpace=wrap;rounded=0;fontSize=18;" vertex="1" parent="1">
          <mxGeometry x="137.5" y="370" width="125" height="30" as="geometry" />
        </mxCell>
        <mxCell id="Gda5yAScNebLMUTnura5-8" value="&lt;span style=&quot;font-size: 16px&quot;&gt;Built-in Env&lt;/span&gt;" style="rounded=0;whiteSpace=wrap;html=1;fontSize=18;" vertex="1" parent="1">
          <mxGeometry x="55" y="403" width="120" height="30" as="geometry" />
        </mxCell>
        <mxCell id="Gda5yAScNebLMUTnura5-12" value="&lt;span style=&quot;font-size: 16px&quot;&gt;External Env&lt;/span&gt;" style="rounded=0;whiteSpace=wrap;html=1;fontSize=18;" vertex="1" parent="1">
          <mxGeometry x="214" y="450" width="120" height="30" as="geometry" />
        </mxCell>
        <mxCell id="Gda5yAScNebLMUTnura5-13" value="&lt;span style=&quot;font-size: 16px&quot;&gt;Offline Reader&lt;/span&gt;" style="rounded=0;whiteSpace=wrap;html=1;fontSize=18;" vertex="1" parent="1">
          <mxGeometry x="55" y="450" width="120" height="30" as="geometry" />
        </mxCell>
        <mxCell id="Gda5yAScNebLMUTnura5-14" value="&lt;span style=&quot;font-size: 16px&quot;&gt;Custom Env&lt;/span&gt;" style="rounded=0;whiteSpace=wrap;html=1;fontSize=18;" vertex="1" parent="1">
          <mxGeometry x="214" y="403" width="120" height="30" as="geometry" />
        </mxCell>
        <mxCell id="Gda5yAScNebLMUTnura5-15" value="&lt;font style=&quot;font-size: 16px&quot;&gt;&lt;span id=&quot;w_15&quot; class=&quot;&quot; style=&quot;color: rgb(51 , 51 , 51) ; font-family: &amp;#34;arial&amp;#34; , &amp;#34;pingfang sc&amp;#34; , &amp;#34;hiragino sans gb&amp;#34; , &amp;#34;stheiti&amp;#34; , &amp;#34;microsoft yahei&amp;#34; , &amp;#34;wenquanyi micro hei&amp;#34; , sans-serif ; text-align: left ; background-color: rgb(249 , 249 , 249)&quot;&gt;Distributed&amp;nbsp;&lt;/span&gt;&lt;span id=&quot;w_16&quot; class=&quot;&quot; style=&quot;color: rgb(51 , 51 , 51) ; font-family: &amp;#34;arial&amp;#34; , &amp;#34;pingfang sc&amp;#34; , &amp;#34;hiragino sans gb&amp;#34; , &amp;#34;stheiti&amp;#34; , &amp;#34;microsoft yahei&amp;#34; , &amp;#34;wenquanyi micro hei&amp;#34; , sans-serif ; text-align: left ; background-color: rgb(249 , 249 , 249)&quot;&gt;Parallel Env Pool&lt;/span&gt;&lt;/font&gt;" style="rounded=0;whiteSpace=wrap;html=1;fontSize=18;" vertex="1" parent="1">
          <mxGeometry x="54" y="496" width="280" height="30" as="geometry" />
        </mxCell>
        <mxCell id="Gda5yAScNebLMUTnura5-16" value="&lt;span style=&quot;font-size: 16px&quot;&gt;Policy Client&lt;/span&gt;" style="rounded=0;whiteSpace=wrap;html=1;fontSize=18;" vertex="1" parent="1">
          <mxGeometry x="55" y="543" width="280" height="30" as="geometry" />
        </mxCell>
        <mxCell id="Gda5yAScNebLMUTnura5-20" value="" style="rounded=0;whiteSpace=wrap;html=1;fillColor=#dae8fc;strokeColor=#6c8ebf;dashed=1;" vertex="1" parent="1">
          <mxGeometry x="30" y="610" width="340" height="130" as="geometry" />
        </mxCell>
        <mxCell id="Gda5yAScNebLMUTnura5-22" value="Warehouse" style="text;html=1;strokeColor=none;fillColor=none;align=center;verticalAlign=middle;whiteSpace=wrap;rounded=0;fontSize=18;" vertex="1" parent="1">
          <mxGeometry x="137.5" y="610" width="125" height="30" as="geometry" />
        </mxCell>
        <mxCell id="Gda5yAScNebLMUTnura5-23" value="&lt;span style=&quot;font-size: 16px&quot;&gt;Single-Agent&lt;/span&gt;" style="rounded=0;whiteSpace=wrap;html=1;fontSize=18;" vertex="1" parent="1">
          <mxGeometry x="55" y="640" width="125" height="30" as="geometry" />
        </mxCell>
        <mxCell id="Gda5yAScNebLMUTnura5-24" value="&lt;span style=&quot;font-size: 16px&quot;&gt;Multi-Agnet&lt;/span&gt;" style="rounded=0;whiteSpace=wrap;html=1;fontSize=18;" vertex="1" parent="1">
          <mxGeometry x="214" y="640" width="120" height="30" as="geometry" />
        </mxCell>
        <mxCell id="Gda5yAScNebLMUTnura5-27" value="&lt;span style=&quot;font-size: 16px&quot;&gt;Hierarchical&lt;/span&gt;" style="rounded=0;whiteSpace=wrap;html=1;fontSize=18;" vertex="1" parent="1">
          <mxGeometry x="55" y="690" width="125" height="30" as="geometry" />
        </mxCell>
        <mxCell id="Gda5yAScNebLMUTnura5-28" value="Imitation" style="rounded=0;whiteSpace=wrap;html=1;fontSize=18;" vertex="1" parent="1">
          <mxGeometry x="214" y="690" width="120" height="30" as="geometry" />
        </mxCell>
        <mxCell id="Gda5yAScNebLMUTnura5-34" style="edgeStyle=orthogonalEdgeStyle;rounded=0;orthogonalLoop=1;jettySize=auto;html=1;exitX=0.5;exitY=1;exitDx=0;exitDy=0;fontSize=16;strokeWidth=3;" edge="1" parent="1" source="Gda5yAScNebLMUTnura5-20" target="Gda5yAScNebLMUTnura5-20">
          <mxGeometry relative="1" as="geometry" />
        </mxCell>
        <mxCell id="Gda5yAScNebLMUTnura5-35" style="edgeStyle=orthogonalEdgeStyle;rounded=0;orthogonalLoop=1;jettySize=auto;html=1;exitX=0.5;exitY=1;exitDx=0;exitDy=0;fontSize=16;strokeWidth=3;" edge="1" parent="1">
          <mxGeometry relative="1" as="geometry">
            <mxPoint x="560" y="740" as="sourcePoint" />
            <mxPoint x="560" y="740" as="targetPoint" />
          </mxGeometry>
        </mxCell>
        <mxCell id="Gda5yAScNebLMUTnura5-38" value="" style="rounded=0;whiteSpace=wrap;html=1;fillColor=#dae8fc;strokeColor=#6c8ebf;dashed=1;" vertex="1" parent="1">
          <mxGeometry x="400" y="370" width="340" height="370" as="geometry" />
        </mxCell>
        <mxCell id="Gda5yAScNebLMUTnura5-39" value="Panel" style="text;html=1;strokeColor=none;fillColor=none;align=center;verticalAlign=middle;whiteSpace=wrap;rounded=0;fontSize=18;" vertex="1" parent="1">
          <mxGeometry x="507.5" y="370" width="125" height="30" as="geometry" />
        </mxCell>
        <mxCell id="Gda5yAScNebLMUTnura5-40" value="&lt;span style=&quot;font-size: 16px&quot;&gt;Debug Train&lt;/span&gt;" style="rounded=0;whiteSpace=wrap;html=1;fontSize=18;" vertex="1" parent="1">
          <mxGeometry x="430" y="404" width="120" height="30" as="geometry" />
        </mxCell>
        <mxCell id="Gda5yAScNebLMUTnura5-41" value="&lt;span style=&quot;font-size: 16px&quot;&gt;Tune Train&lt;/span&gt;" style="rounded=0;whiteSpace=wrap;html=1;fontSize=18;" vertex="1" parent="1">
          <mxGeometry x="580" y="404" width="120" height="30" as="geometry" />
        </mxCell>
        <mxCell id="Gda5yAScNebLMUTnura5-47" value="&lt;span style=&quot;font-size: 16px&quot;&gt;Policy&lt;/span&gt;" style="rounded=0;whiteSpace=wrap;html=1;fontSize=18;" vertex="1" parent="1">
          <mxGeometry x="430" y="598" width="120" height="30" as="geometry" />
        </mxCell>
        <mxCell id="Gda5yAScNebLMUTnura5-48" value="&lt;span style=&quot;font-size: 16px&quot;&gt;Model&lt;/span&gt;" style="rounded=0;whiteSpace=wrap;html=1;fontSize=18;" vertex="1" parent="1">
          <mxGeometry x="430" y="647" width="270" height="30" as="geometry" />
        </mxCell>
        <mxCell id="Gda5yAScNebLMUTnura5-49" value="&lt;span style=&quot;font-size: 16px&quot;&gt;Execute plan&lt;/span&gt;" style="rounded=0;whiteSpace=wrap;html=1;fontSize=18;" vertex="1" parent="1">
          <mxGeometry x="580" y="598" width="120" height="30" as="geometry" />
        </mxCell>
        <mxCell id="Gda5yAScNebLMUTnura5-50" value="&lt;span style=&quot;font-size: 16px&quot;&gt;Act distribution&lt;/span&gt;" style="rounded=0;whiteSpace=wrap;html=1;fontSize=18;" vertex="1" parent="1">
          <mxGeometry x="430" y="692" width="270" height="30" as="geometry" />
        </mxCell>
        <mxCell id="Gda5yAScNebLMUTnura5-53" value="&lt;span style=&quot;font-size: 16px&quot;&gt;Trainer&lt;/span&gt;" style="rounded=0;whiteSpace=wrap;html=1;fontSize=18;" vertex="1" parent="1">
          <mxGeometry x="430" y="510" width="270" height="30" as="geometry" />
        </mxCell>
        <mxCell id="Gda5yAScNebLMUTnura5-54" value="&lt;span style=&quot;font-size: 16px&quot;&gt;Evaluator&lt;/span&gt;" style="rounded=0;whiteSpace=wrap;html=1;fontSize=18;" vertex="1" parent="1">
          <mxGeometry x="430" y="450" width="120" height="30" as="geometry" />
        </mxCell>
        <mxCell id="Gda5yAScNebLMUTnura5-55" value="&lt;span style=&quot;font-size: 16px&quot;&gt;Policy Server&lt;/span&gt;" style="rounded=0;whiteSpace=wrap;html=1;fontSize=18;" vertex="1" parent="1">
          <mxGeometry x="430" y="555" width="270" height="30" as="geometry" />
        </mxCell>
        <mxCell id="Gda5yAScNebLMUTnura5-56" value="" style="endArrow=none;dashed=1;html=1;dashPattern=1 3;strokeWidth=2;rounded=0;fontSize=16;" edge="1" parent="1">
          <mxGeometry width="50" height="50" relative="1" as="geometry">
            <mxPoint x="430" y="496" as="sourcePoint" />
            <mxPoint x="700" y="496" as="targetPoint" />
          </mxGeometry>
        </mxCell>
        <mxCell id="Gda5yAScNebLMUTnura5-57" value="" style="rounded=0;whiteSpace=wrap;html=1;fillColor=#dae8fc;strokeColor=#6c8ebf;dashed=1;" vertex="1" parent="1">
          <mxGeometry x="30" y="770" width="710" height="80" as="geometry" />
        </mxCell>
        <mxCell id="Gda5yAScNebLMUTnura5-58" value="Core Engine" style="text;html=1;strokeColor=none;fillColor=none;align=center;verticalAlign=middle;whiteSpace=wrap;rounded=0;fontSize=18;" vertex="1" parent="1">
          <mxGeometry x="322.5" y="770" width="125" height="30" as="geometry" />
        </mxCell>
        <mxCell id="Gda5yAScNebLMUTnura5-63" value="&lt;span style=&quot;font-size: 16px&quot;&gt;Studio Wrapper&lt;/span&gt;" style="rounded=0;whiteSpace=wrap;html=1;fontSize=18;" vertex="1" parent="1">
          <mxGeometry x="430" y="800" width="270" height="30" as="geometry" />
        </mxCell>
        <mxCell id="Gda5yAScNebLMUTnura5-65" value="&lt;span style=&quot;font-size: 16px&quot;&gt;RLlib&lt;/span&gt;" style="rounded=0;whiteSpace=wrap;html=1;fontSize=18;" vertex="1" parent="1">
          <mxGeometry x="60" y="800" width="270" height="30" as="geometry" />
        </mxCell>
        <mxCell id="Gda5yAScNebLMUTnura5-66" value="&lt;span style=&quot;font-size: 16px&quot;&gt;Visual&lt;/span&gt;" style="rounded=0;whiteSpace=wrap;html=1;fontSize=18;" vertex="1" parent="1">
          <mxGeometry x="580" y="450" width="120" height="30" as="geometry" />
        </mxCell>
      </root>
    </mxGraphModel>
  </diagram>
</mxfile>
